# xmcd
#
# Track frame offsets:
# 150
# 16092
# 29325
# 44193
# 60750
# 79167
# 92970
# 102531
# 115890
# 131721
# 142089
# 157119
# 166323
# 179751
#
# Disc length: 2616 seconds
#
#
# Revision: 0
# Processed by: cddbd v1.5.2PL0 Copyright (c) Steve Scherf et al.
# Submitted via: FreeRIP 2.96 
#
DISCID=c70a360e
DTITLE=Tião Carreiro e Parceiros
DYEAR=2000
DGENRE=Sertanejo
TTITLE0=Rio de Lágrimas
TTITLE1=Rei do Gado
TTITLE2=Meu Carro é Minha Viola
TTITLE3=Terra Roxa
TTITLE4=A Beleza do Ponteio
TTITLE5=A coisa tá Feia
TTITLE6=O Menino da Porteira
TTITLE7=Viúva Rica
TTITLE8=Viola Vermelha
TTITLE9=A Ferro e Fogo
TTITLE10=A Vaca já foi pro Brejo
TTITLE11=Cabelo Loiro
TTITLE12=Palavra de Honra
TTITLE13=A Mão do Tempo
EXTD=
EXTT0=
EXTT1=
EXTT2=
EXTT3=
EXTT4=
EXTT5=
EXTT6=
EXTT7=
EXTT8=
EXTT9=
EXTT10=
EXTT11=
EXTT12=
EXTT13=
PLAYORDER=
